<svg xmlns="http://www.w3.org/2000/svg" width="30" height="35" viewBox="0 0 30 35" fill="none">
  <path d="M13.111 22.6128C16.0232 21.1567 28.9377 13.0333 27.2127 8.39468C37.8893 27.5181 14.5671 30.6641 12.8333 30.846C11.0995 31.0279 11.2597 33.521 11.4715 34.0901C4.42641 29.5142 10.1989 24.0689 13.111 22.6128Z" fill="#005E5D"/>
  <path d="M7.85551 27.9226C-5.57464 18.9463 1.22041 8.67953 6.24529 4.79666C5.83629 7.38702 7.10002 8.10115 7.75963 8.4739L7.76985 8.47968C7.70133 6.287 9.61425 5.51043 10.6135 5.05362C9.44866 8.8908 11.727 11.8486 13.0118 12.8479C10.545 14.9721 7.7984 14.2183 6.48508 13.7044C3.40163 18.3296 7.25594 22.9548 9.99679 24.2395C8.55785 26.0896 8.19812 26.4665 7.85551 27.9226Z" fill="#005E5D"/>
  <path d="M14.7074 6.16556C19.3552 6.16557 23.2485 9.38503 24.2845 13.7154C20.2052 17.6069 14.7761 21.16 12.8881 22.106C12.1221 22.4898 11.1875 23.1134 10.2924 23.9077C8.02935 22.2543 4.26323 19.5058 6.65662 14.3902C8.18536 14.9906 11.2367 15.488 14.1078 13.0064C12.9677 12.1162 11.1576 9.89543 10.9613 6.90384C12.1162 6.42846 13.381 6.1656 14.7074 6.16556Z" fill="#3A8EE6"/>
  <path d="M26.6989 10.0214C26.7674 10.4325 25.4643 12.1056 24.7791 12.8479C22.502 6.59536 16.5635 5.33913 14.1081 5.65319C13.6285 4.28277 16.5851 1.37062 18.1839 0.000193596C18.241 1.48482 18.8691 4.52259 20.9248 4.79668C23.4943 5.13928 26.6132 9.50751 26.6989 10.0214Z" fill="#005E5D"/>
</svg>

